<svg xmlns="http://www.w3.org/2000/svg" viewBox="0 0 1200 300" width="100%" height="100%">
  <defs>
    <filter id="blue-glow" x="-20%" y="-20%" width="140%" height="140%">
      <feGaussianBlur stdDeviation="4" result="blur" />
      <feMerge>
        <feMergeNode in="blur" />
        <feMergeNode in="blur" />
        <feMergeNode in="SourceGraphic" />
      </feMerge>
    </filter>
  </defs>

  <rect width="1200" height="300" fill="#0d1117" />

  <g stroke="#21262d" stroke-width="1.5" fill="none">
    <path d="M100,80 L200,50 L150,170 Z" />
    <path d="M100,80 L150,170 L60,210" />
    <path d="M150,170 L250,230 L200,50" />
    <path d="M1060,70 L1160,110 L1100,200 Z" />
    <path d="M1100,200 L1020,250 L1060,70" />
  </g>
  <g fill="#0d1117" stroke="#21262d" stroke-width="1.5">
    <circle cx="100" cy="80" r="3"/>
    <circle cx="200" cy="50" r="3"/>
    <circle cx="150" cy="170" r="3"/>
    <circle cx="60" cy="210" r="3"/>
    <circle cx="250" cy="230" r="3"/>
    <circle cx="1060" cy="70" r="3"/>
    <circle cx="1160" cy="110" r="3"/>
    <circle cx="1100" cy="200" r="3"/>
    <circle cx="1020" cy="250" r="3"/>
  </g>

  <g stroke="#30363d" stroke-width="2" fill="none">
    <rect x="575" y="15" width="50" height="20" rx="4"/>
    <line x1="575" y1="25" x2="625" y2="25"/>
  </g>
  <text x="30" y="275" font-family="monospace, sans-serif" font-size="12" fill="#30363d" letter-spacing="1">10110100</text>
  <text x="1170" y="35" font-family="monospace, sans-serif" font-size="16" fill="#30363d" font-weight="bold" text-anchor="end">&lt;/&gt;</text>

  <text x="600" y="145" font-family="system-ui, -apple-system, sans-serif" font-size="64" font-weight="500" fill="#ffffff" text-anchor="middle" letter-spacing="1">Introduction-to-the-IoT</text>
  <text x="600" y="185" font-family="system-ui, -apple-system, sans-serif" font-size="22" font-weight="400" fill="#8b949e" text-anchor="middle">Project Showcase - David JUDEA</text>

  <g filter="url(#blue-glow)" stroke="#58a6ff" stroke-width="2" fill="none">
    
    <g transform="translate(510, 230)">
      <circle cx="0" cy="0" r="18" />
      <ellipse cx="0" cy="0" rx="8" ry="18" />
      <line x1="-18" y1="0" x2="18" y2="0" />
      <line x1="0" y1="-18" x2="0" y2="18" />
    </g>

    <g transform="translate(600, 230)">
      <rect x="-22" y="-18" width="44" height="38" rx="4" />
      <text x="-1" y="6" font-family="monospace, sans-serif" font-size="20" font-weight="bold" fill="#58a6ff" stroke="none" text-anchor="middle">&gt;_</text>
    </g>

    <g transform="translate(690, 230)">
      <path d="M-5,20 L-5,-10" />
      <path d="M-5,15 C-5,-5 12,-2 12,-10" />
      <circle cx="-5" cy="17" r="2.5" fill="#0d1117" />
      <circle cx="-5" cy="-10" r="2.5" fill="#0d1117" />
      <circle cx="12" cy="-10" r="2.5" fill="#0d1117" />
    </g>

  </g>
</svg>
